<svg id="visual" viewBox="0 0 900 600" width="900" height="600" xmlns="http://www.w3.org/2000/svg" xmlns:xlink="http://www.w3.org/1999/xlink" version="1.1"><rect x="0" y="0" width="900" height="600" fill="#001220"></rect><path d="M0 371L21.5 377.2C43 383.3 86 395.7 128.8 405.7C171.7 415.7 214.3 423.3 257.2 428C300 432.7 343 434.3 385.8 430.5C428.7 426.7 471.3 417.3 514.2 415.7C557 414 600 420 642.8 426.8C685.7 433.7 728.3 441.3 771.2 429.5C814 417.7 857 386.3 878.5 370.7L900 355L900 601L878.5 601C857 601 814 601 771.2 601C728.3 601 685.7 601 642.8 601C600 601 557 601 514.2 601C471.3 601 428.7 601 385.8 601C343 601 300 601 257.2 601C214.3 601 171.7 601 128.8 601C86 601 43 601 21.5 601L0 601Z" fill="#fa7268"></path><path d="M0 476L21.5 463.3C43 450.7 86 425.3 128.8 417.2C171.7 409 214.3 418 257.2 419C300 420 343 413 385.8 410.3C428.7 407.7 471.3 409.3 514.2 418C557 426.7 600 442.3 642.8 448.3C685.7 454.3 728.3 450.7 771.2 450.7C814 450.7 857 454.3 878.5 456.2L900 458L900 601L878.5 601C857 601 814 601 771.2 601C728.3 601 685.7 601 642.8 601C600 601 557 601 514.2 601C471.3 601 428.7 601 385.8 601C343 601 300 601 257.2 601C214.3 601 171.7 601 128.8 601C86 601 43 601 21.5 601L0 601Z" fill="#ef5f67"></path><path d="M0 462L21.5 462.5C43 463 86 464 128.8 472.2C171.7 480.3 214.3 495.7 257.2 492.2C300 488.7 343 466.3 385.8 458.5C428.7 450.7 471.3 457.3 514.2 466.7C557 476 600 488 642.8 488.5C685.7 489 728.3 478 771.2 479.7C814 481.3 857 495.7 878.5 502.8L900 510L900 601L878.5 601C857 601 814 601 771.2 601C728.3 601 685.7 601 642.8 601C600 601 557 601 514.2 601C471.3 601 428.7 601 385.8 601C343 601 300 601 257.2 601C214.3 601 171.7 601 128.8 601C86 601 43 601 21.5 601L0 601Z" fill="#e34c67"></path><path d="M0 488L21.5 487C43 486 86 484 128.8 488C171.7 492 214.3 502 257.2 508.5C300 515 343 518 385.8 522.5C428.7 527 471.3 533 514.2 535.2C557 537.3 600 535.7 642.8 529C685.7 522.3 728.3 510.7 771.2 504.5C814 498.3 857 497.7 878.5 497.3L900 497L900 601L878.5 601C857 601 814 601 771.2 601C728.3 601 685.7 601 642.8 601C600 601 557 601 514.2 601C471.3 601 428.7 601 385.8 601C343 601 300 601 257.2 601C214.3 601 171.7 601 128.8 601C86 601 43 601 21.5 601L0 601Z" fill="#d53867"></path><path d="M0 559L21.5 558.8C43 558.7 86 558.3 128.8 556.5C171.7 554.7 214.3 551.3 257.2 545.8C300 540.3 343 532.7 385.8 530.3C428.7 528 471.3 531 514.2 533.5C557 536 600 538 642.8 542.5C685.7 547 728.3 554 771.2 554.7C814 555.3 857 549.7 878.5 546.8L900 544L900 601L878.5 601C857 601 814 601 771.2 601C728.3 601 685.7 601 642.8 601C600 601 557 601 514.2 601C471.3 601 428.7 601 385.8 601C343 601 300 601 257.2 601C214.3 601 171.7 601 128.8 601C86 601 43 601 21.5 601L0 601Z" fill="#c62368"></path></svg>