<svg id="visual" viewBox="0 0 900 600" width="900" height="600" xmlns="http://www.w3.org/2000/svg" xmlns:xlink="http://www.w3.org/1999/xlink" version="1.1"><rect x="0" y="0" width="900" height="600" fill="#04080a"></rect><path d="M0 507L16.7 495.5C33.3 484 66.7 461 100 463.2C133.3 465.3 166.7 492.7 200 502.5C233.3 512.3 266.7 504.7 300 493.2C333.3 481.7 366.7 466.3 400 471.3C433.3 476.3 466.7 501.7 500 494.2C533.3 486.7 566.7 446.3 600 437.7C633.3 429 666.7 452 700 452.2C733.3 452.3 766.7 429.7 800 427.7C833.3 425.7 866.7 444.3 883.3 453.7L900 463L900 601L883.3 601C866.7 601 833.3 601 800 601C766.7 601 733.3 601 700 601C666.7 601 633.3 601 600 601C566.7 601 533.3 601 500 601C466.7 601 433.3 601 400 601C366.7 601 333.3 601 300 601C266.7 601 233.3 601 200 601C166.7 601 133.3 601 100 601C66.7 601 33.3 601 16.7 601L0 601Z" fill="#c95f08" stroke-linecap="round" stroke-linejoin="miter"></path></svg>